<?xml version="1.0" encoding="UTF-8"?>
<svg version="1.1" xmlns="http://www.w3.org/2000/svg" width="32" height="32">
<path d="M0 0 C10.56 0 21.12 0 32 0 C32 10.56 32 21.12 32 32 C21.44 32 10.88 32 0 32 C0 21.44 0 10.88 0 0 Z " fill="#FEFEFD" transform="translate(0,0)"/>
<path d="M0 0 C3.63525215 2.60789828 4.83397068 4.0702358 5.625 8.5 C4.82883761 12.95850936 3.69186542 14.40783917 0 17 C-3.5 17.6875 -3.5 17.6875 -7 17 C-10 14.4375 -10 14.4375 -12 11 C-12.14971147 6.65836732 -11.72194213 4.80444981 -8.8125 1.5625 C-5.43724821 -0.31263988 -3.7992366 -0.71235686 0 0 Z " fill="#9B7638" transform="translate(19,7)"/>
<path d="M0 0 C2.875 2.5 2.875 2.5 5 5 C4.01 5.495 4.01 5.495 3 6 C2.34 5.67 1.68 5.34 1 5 C1.33 6.32 1.66 7.64 2 9 C-0.31 9 -2.62 9 -5 9 C-3.68 9.33 -2.36 9.66 -1 10 C-1 10.99 -1 11.98 -1 13 C-3.97 12.505 -3.97 12.505 -7 12 C-7.6875 9.6875 -7.6875 9.6875 -8 7 C-6.75 5.1875 -6.75 5.1875 -5 4 C-4.01 4 -3.02 4 -2 4 C-2 3.34 -2 2.68 -2 2 C-4.31 2.66 -6.62 3.32 -9 4 C-9.12375 4.78375 -9.2475 5.5675 -9.375 6.375 C-10 9 -10 9 -12 11 C-11.76435605 6.91550495 -11.59037881 4.65785068 -8.8125 1.5625 C-5.43724821 -0.31263988 -3.7992366 -0.71235686 0 0 Z " fill="#BA9146" transform="translate(19,7)"/>
<path d="M0 0 C0.66 0 1.32 0 2 0 C2.8125 2.125 2.8125 2.125 3 5 C1.55576519 7.30107561 -0.10872135 9.01646386 -2 11 C-4.78211944 10.62403791 -6.5879284 10.32681541 -8.8125 8.5625 C-10 7 -10 7 -10 5 C-9.34 5 -8.68 5 -8 5 C-8 5.66 -8 6.32 -8 7 C-6.02 7 -4.04 7 -2 7 C-3.32 6.67 -4.64 6.34 -6 6 C-6 5.01 -6 4.02 -6 3 C-5.01 3.33 -4.02 3.66 -3 4 C-2.67 3.34 -2.34 2.68 -2 2 C-1.34 2 -0.68 2 0 2 C0 1.34 0 0.68 0 0 Z " fill="#7D5A24" transform="translate(20,12)"/>
<path d="M0 0 C0.66 0.66 1.32 1.32 2 2 C-0.97851562 2.34179688 -0.97851562 2.34179688 -3.95703125 2.68359375 C-6.19396393 2.97170735 -6.19396393 2.97170735 -9 4 C-9.12375 4.78375 -9.2475 5.5675 -9.375 6.375 C-10 9 -10 9 -12 11 C-11.76435605 6.91550495 -11.59037881 4.65785068 -8.8125 1.5625 C-5.54387905 -0.25340053 -3.68384 -0.49117867 0 0 Z " fill="#C2A269" transform="translate(19,7)"/>
<path d="M0 0 C-0.33 0.66 -0.66 1.32 -1 2 C-1.99 2.33 -2.98 2.66 -4 3 C-2.35 3 -0.7 3 1 3 C0.67 3.99 0.34 4.98 0 6 C-2.97 5.505 -2.97 5.505 -6 5 C-6.33 3.35 -6.66 1.7 -7 0 C-3.86650268 -1.04449911 -3.01031744 -0.93423645 0 0 Z " fill="#B0863C" transform="translate(18,14)"/>
<path d="M0 0 C0.66 0 1.32 0 2 0 C2.33 1.65 2.66 3.3 3 5 C2.01 5 1.02 5 0 5 C-0.33 5.66 -0.66 6.32 -1 7 C-2.98 6.34 -4.96 5.68 -7 5 C-6.67 4.34 -6.34 3.68 -6 3 C-5.01 3.33 -4.02 3.66 -3 4 C-2.67 3.34 -2.34 2.68 -2 2 C-1.34 2 -0.68 2 0 2 C0 1.34 0 0.68 0 0 Z " fill="#8C662B" transform="translate(20,12)"/>
</svg>
